<?xml version="1.0" encoding="UTF-8"?>
<svg version="1.1" xmlns="http://www.w3.org/2000/svg" width="512" height="512">
<path d="M0 0 C3.59182797 2.98746686 6.58310469 5.81623977 7.75 10.4375 C9.0859261 25.1154969 6.22812841 39.95349931 4.1875 54.4375 C3.91276485 56.41979555 3.63803068 58.40209123 3.36346245 60.3844099 C-4.00492443 113.44919735 -12.70590427 167.02173096 -34.25 216.4375 C-34.64268066 217.34258301 -35.03536133 218.24766602 -35.43994141 219.18017578 C-47.01306806 245.49061727 -63.02252694 268.44555577 -81.93798828 289.94189453 C-83.13408588 291.30536567 -84.31588744 292.6813443 -85.49609375 294.05859375 C-89.14839156 298.28045067 -92.93150066 302.03262896 -97.1953125 305.6328125 C-99.43128376 307.59672642 -101.48809731 309.67903958 -103.5625 311.8125 C-107.75869845 316.09657696 -112.29760675 319.76130014 -117.0625 323.39453125 C-119.27310759 325.24025132 -119.27310759 325.24025132 -120.2578125 327.3125 C-120.24566618 330.61629949 -118.72769974 332.76495213 -117.125 335.625 C-104.5667049 359.34901831 -103.32164308 387.60182009 -111.01928711 413.0690918 C-116.15787781 428.89479029 -124.91242434 441.86634591 -136.2109375 453.953125 C-136.80596069 454.58970535 -137.40098389 455.22628571 -138.01403809 455.88215637 C-146.14537414 464.51956117 -154.53302984 472.90656297 -162.92089844 481.29370117 C-165.303883 483.6765826 -167.67981517 486.06637247 -170.05422211 488.45779705 C-172.35455961 490.77193721 -174.66209568 493.07887756 -176.96875 495.38671875 C-177.81256226 496.23771652 -178.65637451 497.08871429 -179.52575684 497.96549988 C-186.29484167 504.70839612 -191.4413498 509.48751719 -201.375 509.875 C-208.19698777 509.8141573 -212.36849709 508.19248448 -217.25 503.4375 C-221.47621582 498.59913036 -222.60028191 492.75204144 -222.25 486.4375 C-220.53069963 477.59341892 -214.75098127 472.26853282 -208.25 466.4375 C-213.37344371 460.23909881 -218.96814972 454.58418732 -224.66162109 448.91235352 C-225.70704281 447.86721433 -226.75224346 446.82185399 -227.79724121 445.77629089 C-230.61687602 442.95637071 -233.43957008 440.13953131 -236.26284742 437.32325864 C-239.21948186 434.37290106 -242.1732601 431.41968671 -245.12734985 428.46678162 C-250.71378408 422.88344797 -256.30276117 417.30266704 -261.89266932 411.72281164 C-268.2598465 405.36683522 -274.62416394 399.00799857 -280.98824954 392.64892685 C-294.07233299 379.57527896 -307.15998143 366.5052052 -320.25 353.4375 C-319.76644043 354.59290283 -319.28288086 355.74830566 -318.78466797 356.9387207 C-318.14535279 358.47600976 -317.5062013 360.01336689 -316.8671875 361.55078125 C-316.54903076 362.30975708 -316.23087402 363.06873291 -315.90307617 363.85070801 C-307.08543476 385.11509813 -307.51236375 407.26732281 -316.25 428.4375 C-329.06830316 456.91898483 -354.49030531 469.19127793 -382.19140625 479.8125 C-409.13027633 489.91314153 -436.47700405 498.23063611 -464.2071228 505.86941528 C-466.03165428 506.37678227 -467.85173656 506.90008673 -469.67114258 507.42553711 C-477.88589991 509.77748586 -486.61003419 511.43144457 -494.75 507.875 C-499.59974831 505.00411305 -502.49237782 500.71036655 -504.25 495.4375 C-505.57380286 483.90183341 -502.26731293 473.56613951 -499.0625 462.625 C-498.51848538 460.7279197 -497.97495556 458.83070031 -497.43188477 456.93334961 C-471.7507491 367.89221907 -471.7507491 367.89221907 -450.25 341.4375 C-449.56550781 340.52742188 -448.88101563 339.61734375 -448.17578125 338.6796875 C-435.602233 324.04030272 -415.08395459 316.44408629 -396.375 314.5625 C-378.8036359 313.77010478 -364.20617764 318.34586549 -348.25 325.4375 C-385.21 288.4775 -422.17 251.5175 -460.25 213.4375 C-465.25047782 217.71090055 -465.25047782 217.71090055 -470.125 222.125 C-475.2404223 225.9104125 -480.39745513 227.81355435 -486.8125 227.4375 C-493.29248465 226.36315699 -498.30664291 223.17684804 -502.25 217.9375 C-505.28399406 212.54601056 -505.14198717 206.42868047 -504.25 200.4375 C-502.40499349 196.24233553 -500.3016834 193.05965637 -497.19482422 189.70532227 C-496.39606873 188.84230499 -495.59731323 187.97928772 -494.77435303 187.09011841 C-490.6162712 182.7207595 -486.39508532 178.41999743 -482.1328125 174.15234375 C-481.18546964 173.20177277 -480.23819538 172.2511334 -479.29098511 171.3004303 C-477.32123159 169.32474847 -475.34948377 167.35108265 -473.37646484 165.37866211 C-470.87836729 162.8806662 -468.38723349 160.37584853 -465.89779854 157.86922359 C-463.94845111 155.90863395 -461.9944497 153.95273141 -460.03921127 151.99801826 C-458.68103703 150.63812917 -457.32738616 149.27372702 -455.97390747 147.90916443 C-438.78479681 130.78219534 -419.96674274 118.75233632 -396.25 113.4375 C-395.49122559 113.2624292 -394.73245117 113.0873584 -393.95068359 112.90698242 C-372.35057066 109.15205409 -345.21921206 112.00147984 -326.578125 124.18359375 C-324.3908746 125.60487119 -324.3908746 125.60487119 -322.20703125 125.41015625 C-319.46389736 124.04680228 -317.93055876 122.19374509 -315.9375 119.875 C-315.21949219 119.04871094 -314.50148438 118.22242187 -313.76171875 117.37109375 C-312.42995662 115.81564529 -311.09905125 114.25944444 -309.77490234 112.69750977 C-305.05882485 107.20707781 -300.04414203 102.04546243 -294.92675781 96.92895508 C-293.51080053 95.51081716 -292.10301711 94.08453335 -290.6953125 92.65820312 C-274.99194308 76.92202722 -256.72163712 63.19215737 -237.25 52.4375 C-236.4470752 51.98697266 -235.64415039 51.53644531 -234.81689453 51.07226562 C-174.55888834 17.49722628 -104.61071489 8.32326411 -37.25 -0.5625 C-36.44672272 -0.66890808 -35.64344543 -0.77531616 -34.81582642 -0.88494873 C-7.33907564 -4.50434266 -7.33907564 -4.50434266 0 0 Z M-53.41796875 42.94140625 C-54.51481491 43.1001976 -55.61166107 43.25898895 -56.741745 43.42259216 C-60.30793375 43.94222349 -63.87281094 44.4701839 -67.4375 45 C-68.64464661 45.17813232 -69.85179321 45.35626465 -71.09552002 45.53979492 C-91.2912222 48.53234749 -111.30680028 52.07272924 -131.25 56.4375 C-131.55440871 59.37432052 -131.55440871 59.37432052 -130.03184509 61.02479839 C-129.45664627 61.59723184 -128.88144745 62.16966528 -128.28881836 62.75944519 C-127.30436234 63.7500872 -127.30436234 63.7500872 -126.30001831 64.76074219 C-125.57066071 65.47931396 -124.8413031 66.19788574 -124.08984375 66.93823242 C-123.32906525 67.69944901 -122.56828674 68.46066559 -121.78445435 69.24494934 C-119.25917965 71.76812814 -116.72343244 74.28050546 -114.1875 76.79296875 C-112.43806895 78.53680673 -110.68929753 80.28130669 -108.94116211 82.02644348 C-104.33141254 86.62472169 -99.71272568 91.21392133 -95.09216309 95.80133057 C-90.38076288 100.48046714 -85.67941436 105.16969643 -80.9765625 109.85742188 C-71.74265658 119.0591232 -62.49957696 128.25155277 -53.25 137.4375 C-51.06756185 134.16384278 -50.55844989 131.93960802 -49.76953125 128.10546875 C-49.63585648 127.45758392 -49.5021817 126.8096991 -49.36445618 126.1421814 C-48.92131864 123.97152263 -48.49078267 121.79863607 -48.0625 119.625 C-47.91270691 118.87394989 -47.76291382 118.12289978 -47.60858154 117.34909058 C-44.81994241 103.29238455 -42.52903808 89.16633597 -40.375 75 C-40.22406891 74.01276947 -40.07313782 73.02553894 -39.91763306 72.00839233 C-38.37153826 61.83952415 -36.84937586 51.71424256 -36.25 41.4375 C-42.07540195 41.19964023 -47.67316947 42.09683906 -53.41796875 42.94140625 Z M-254.87890625 116.28515625 C-256.99503111 118.20605377 -259.14309269 120.07739432 -261.3125 121.9375 C-268.53311527 128.24098067 -275.03192593 135.15869565 -281.25 142.4375 C-282.14238203 143.45517055 -283.03568697 144.47203222 -283.9296875 145.48828125 C-290.93007953 153.48856376 -297.4423019 161.76105332 -303.71582031 170.34130859 C-305.25808487 172.44854658 -306.81227726 174.54661342 -308.3671875 176.64453125 C-322.53191247 195.87648942 -335.08717135 216.16939299 -347.49072266 236.56347656 C-349.07186674 239.14649462 -350.67547675 241.71308857 -352.29296875 244.2734375 C-352.72754395 244.97017578 -353.16211914 245.66691406 -353.60986328 246.38476562 C-354.71360674 248.1539817 -355.82703749 249.91714462 -356.94140625 251.6796875 C-358.42945148 254.21668428 -358.42945148 254.21668428 -358.08675861 256.3302412 C-356.96148577 259.16408249 -355.32137433 260.75009451 -353.17045593 262.91145325 C-352.29137573 263.80188324 -351.41229553 264.69231323 -350.50657654 265.60972595 C-349.52496902 266.58869018 -348.54319775 267.56749023 -347.5612793 268.54614258 C-346.53254201 269.58221914 -345.50443005 270.61891691 -344.47689819 271.65618896 C-341.68441504 274.47090663 -338.88234374 277.27588929 -336.07777762 280.07856202 C-333.73903324 282.41718685 -331.4046432 284.76013474 -329.07013255 287.10298461 C-323.56495333 292.62740321 -318.05163018 298.14360219 -312.53344727 303.6550293 C-306.83461064 309.34721751 -301.15071136 315.05401987 -295.47376126 320.76802903 C-290.60284064 325.66959341 -285.72235992 330.56149341 -280.83414394 335.44580954 C-277.91300385 338.36487739 -274.99580461 341.28763438 -272.08792686 344.2199192 C-269.35503671 346.97498725 -266.6104648 349.71784544 -263.85628891 352.45162964 C-262.84574118 353.4587519 -261.83947375 354.47018941 -260.83778191 355.48612022 C-259.4735627 356.8683901 -258.09246799 358.23394501 -256.710495 359.59846497 C-255.94117488 360.36849759 -255.17185476 361.13853022 -254.37922192 361.93189716 C-252.38891149 363.68496979 -252.38891149 363.68496979 -250.09925556 363.24048901 C-247.98667788 362.32315952 -246.0042819 361.31596275 -244.00390625 360.171875 C-242.7655603 359.46611328 -242.7655603 359.46611328 -241.50219727 358.74609375 C-240.17079712 357.97458984 -240.17079712 357.97458984 -238.8125 357.1875 C-237.87656006 356.64738281 -236.94062012 356.10726563 -235.97631836 355.55078125 C-204.82563336 337.46850679 -173.78579776 317.74018258 -146.25 294.4375 C-145.14894665 293.52152304 -144.04735334 292.60619488 -142.9453125 291.69140625 C-137.69053681 287.31093706 -132.53780418 282.91244671 -127.7890625 277.9765625 C-126.18472396 276.37222396 -124.50071305 274.94221736 -122.75 273.5 C-119.52954667 270.78766264 -116.82663595 267.81177787 -114.109375 264.6015625 C-112.86204599 263.14983924 -111.5796587 261.72757162 -110.265625 260.3359375 C-92.18175525 241.13007583 -79.27212438 217.67617332 -69.25 193.4375 C-68.93820801 192.70869629 -68.62641602 191.97989258 -68.30517578 191.22900391 C-66.25680377 186.36307428 -66.25680377 186.36307428 -67.25 181.4375 C-69.13492409 179.10522457 -69.13492409 179.10522457 -71.57751465 176.74249268 C-72.03093782 176.28580066 -72.48436099 175.82910865 -72.95152426 175.35857749 C-74.47300312 173.82981446 -76.00496648 172.312015 -77.53710938 170.79394531 C-78.62985404 169.70040985 -79.72194552 168.60622133 -80.81343079 167.51142883 C-83.77969491 164.54002775 -86.75521246 161.57805319 -89.73259163 158.61779499 C-92.84286457 155.52254297 -95.94504618 152.419202 -99.04821777 149.3168335 C-104.25874839 144.10999593 -109.47488536 138.90883059 -114.69482422 133.71142578 C-121.40434978 127.03080496 -128.10455702 120.3409188 -134.80187225 113.64805984 C-140.55032845 107.90357709 -146.30304253 102.16336383 -152.05644417 96.4238348 C-153.9107457 94.57363926 -155.76445502 92.72285193 -157.61808777 90.87198639 C-160.52447483 87.97047817 -163.43349591 85.07163642 -166.34462547 82.1748867 C-167.41581036 81.10823938 -168.48614241 80.04073485 -169.55558205 78.97233772 C-171.00889754 77.52075731 -172.46559002 76.0725602 -173.92248535 74.62457275 C-174.73881691 73.81121586 -175.55514847 72.99785896 -176.39621735 72.15985489 C-188.58867172 60.83180985 -244.86983309 107.1505107 -254.87890625 116.28515625 Z M-423.25 174.4375 C-424.08015625 175.25605469 -424.9103125 176.07460937 -425.765625 176.91796875 C-427.61166447 178.74141682 -429.43940768 180.57898023 -431.25 182.4375 C-429.79131246 185.79749018 -427.94131052 187.98953106 -425.35107422 190.56347656 C-424.5503952 191.36400452 -423.74971619 192.16453247 -422.92477417 192.98931885 C-422.06014557 193.84362488 -421.19551697 194.69793091 -420.3046875 195.578125 C-419.4196756 196.46030701 -418.5346637 197.34248901 -417.62283325 198.25140381 C-415.27549869 200.58944543 -412.92393215 202.92305874 -410.57019043 205.25463867 C-408.16686073 207.63746526 -405.76922233 210.02600348 -403.37109375 212.4140625 C-398.66928533 217.09381862 -393.96181336 221.76781867 -389.25 226.4375 C-386.7249008 223.37602792 -384.4860592 220.34916612 -382.5078125 216.91015625 C-382.00620605 216.04664551 -381.50459961 215.18313477 -380.98779297 214.29345703 C-380.45557129 213.37161621 -379.92334961 212.44977539 -379.375 211.5 C-369.35451395 194.35675909 -358.65861068 177.68894951 -347.25 161.4375 C-353.84537497 154.08836789 -364.98509056 153.2972474 -374.25 152.4375 C-393.88066617 151.56502595 -409.99950153 160.89298159 -423.25 174.4375 Z M-162.26953125 356.35546875 C-163.52212924 357.20020447 -164.77473368 358.04493063 -166.02734375 358.88964844 C-166.68589355 359.33626831 -167.34444336 359.78288818 -168.02294922 360.24304199 C-185.35946998 371.98991484 -202.94251792 383.25300157 -221.25 393.4375 C-216.68852453 398.91063966 -211.84258679 403.97704809 -206.7890625 408.99609375 C-205.99849457 409.78524673 -205.20792664 410.57439972 -204.3934021 411.38746643 C-201.88962374 413.88568661 -199.38237525 416.38039044 -196.875 418.875 C-195.16773752 420.57724208 -193.46070391 422.27971373 -191.75390625 423.98242188 C-187.58858102 428.13677363 -183.42040781 432.28825081 -179.25 436.4375 C-168.59430291 431.29333788 -159.659281 419.66392177 -154.25 409.4375 C-153.85554688 408.72722656 -153.46109375 408.01695312 -153.0546875 407.28515625 C-146.20134858 393.65462662 -145.5096008 377.4765517 -150.06640625 363.078125 C-151.29468962 359.45644374 -152.53819654 355.86110691 -154.25 352.4375 C-157.45997022 352.4375 -159.69740209 354.59601927 -162.26953125 356.35546875 Z M-418.5 367.375 C-426.88030074 378.01515712 -431.93285557 390.85612702 -436.625 403.4375 C-436.89703247 404.15741119 -437.16906494 404.87732239 -437.44934082 405.61904907 C-441.57077942 416.53140604 -445.40517184 427.52840277 -449 438.625 C-449.2125946 439.27766846 -449.42518921 439.93033691 -449.64422607 440.6027832 C-451.68186488 446.89240812 -453.43357927 452.85911248 -454.25 459.4375 C-444.8083586 457.8748754 -435.97521021 454.87278774 -426.9375 451.8125 C-425.73871719 451.40916443 -425.73871719 451.40916443 -424.51571655 450.99768066 C-383.70055684 439.49776826 -383.70055684 439.49776826 -353.99609375 412.046875 C-349.89760422 402.50753352 -349.61932062 391.2866141 -352.875 381.4375 C-357.30624274 371.08760436 -364.84192963 363.16351482 -375.125 358.5625 C-390.09364332 352.87178616 -407.07062247 355.5206554 -418.5 367.375 Z " fill="#B6ABF9" transform="translate(504.25,2.5625)"/>
<path d="M0 0 C12.20004883 13.38069871 18.67892108 29.72693993 17.875 47.9375 C16.73368369 64.51828975 9.52347518 78.45198812 -2.453125 89.90234375 C-6.37366761 93.24184786 -10.48302675 95.79122998 -15.0625 98.125 C-16.2071875 98.70894531 -16.2071875 98.70894531 -17.375 99.3046875 C-31.58521922 106.06440984 -49.14501242 106.38037007 -63.96484375 101.37109375 C-79.6975702 95.04229206 -91.68491997 84.36847203 -98.55859375 68.71875 C-104.28630042 54.31024144 -105.85495243 36.86380244 -100.0625 22.125 C-92.9762109 6.08963036 -81.28279009 -6.07697395 -65.0625 -12.875 C-42.86421825 -21.18636914 -17.40633007 -16.24590807 0 0 Z M-55.0625 28.125 C-59.57716314 32.70299508 -62.20690254 36.93355502 -62.3125 43.375 C-62.23924903 49.6094716 -60.8318841 53.06868875 -56.75 57.8125 C-51.56841771 62.27107081 -47.35036531 63.70042626 -40.59375 63.4765625 C-35.33252666 62.74583704 -31.52092467 60.54400778 -27.75 56.875 C-23.77263597 50.39336973 -22.36818266 45.62840537 -24.0625 38.125 C-26.02179299 32.68251947 -29.30394179 29.27131569 -34.0625 26.125 C-41.92142448 23.19455358 -47.88204064 24.03157277 -55.0625 28.125 Z " fill="#BCA1F8" transform="translate(355.0625,155.875)"/>
</svg>
